<svg width="24" height="32" viewBox="0 0 24 32" fill="none" xmlns="http://www.w3.org/2000/svg">
<rect width="7.2605" height="31.0588" rx="1" fill="#2FC0A6"/>
<rect x="8.13452" width="7.32773" height="8.73949" rx="1" fill="#2FC0A6"/>
<rect x="8.13452" y="9.68066" width="7.32773" height="8.73949" rx="1" fill="#2FC0A6"/>
<path d="M8.60576 20.7618C8.37577 20.1111 8.85845 19.4286 9.5486 19.4286H15.8033C16.1472 19.4286 16.467 19.6053 16.65 19.8965L22.7013 29.5268C23.1197 30.1927 22.6411 31.0588 21.8545 31.0588H16.356H12.9524C12.5286 31.0588 12.1508 30.7916 12.0096 30.3921L8.60576 20.7618Z" fill="#2FC0A6"/>
<path d="M16.2316 0.999996C16.2316 0.447712 16.6819 -0.0076828 17.2277 0.0761223C18.9206 0.336004 20.5046 1.25314 21.7247 2.70194C23.1816 4.43197 24 6.77839 24 9.22502C24 11.6716 23.1816 14.0181 21.7247 15.7481C20.5046 17.1969 18.9206 18.114 17.2277 18.3739C16.6819 18.4577 16.2316 18.0023 16.2316 17.45L16.2316 9.22502L16.2316 0.999996Z" fill="#2FC0A6"/>
</svg>
