<svg width="263" height="263" viewBox="0 0 263 263" fill="none" xmlns="http://www.w3.org/2000/svg">
<g clip-path="url(#clip0_87_10)">
<circle cx="131.5" cy="131.5" r="131.5" fill="white"/>
<rect x="58.614" y="34.3269" width="45.4949" height="194.617" rx="1" fill="#333333"/>
<rect x="109.586" y="34.3271" width="45.9162" height="54.7624" rx="1" fill="#333333"/>
<rect x="109.586" y="94.9871" width="45.9162" height="54.7624" rx="1" fill="#333333"/>
<path d="M110.057 157.401C109.827 156.751 110.31 156.068 111 156.068H160.549C160.893 156.068 161.213 156.245 161.396 156.536L205.931 227.412C206.35 228.078 205.871 228.944 205.085 228.944H161.102H136.051C135.627 228.944 135.249 228.677 135.108 228.278L110.057 157.401Z" fill="#333333"/>
<path d="M160.322 35.3269C160.322 34.7746 160.77 34.3256 161.322 34.3391C173.87 34.6449 185.85 40.6973 194.743 51.2575C203.872 62.098 209 76.8009 209 92.1316C209 107.462 203.872 122.165 194.743 133.006C185.85 143.566 173.87 149.618 161.322 149.924C160.77 149.938 160.322 149.489 160.322 148.936L160.322 92.1316V35.3269Z" fill="#333333"/>
</g>
<defs>
<clipPath id="clip0_87_10">
<rect width="263" height="263" fill="white"/>
</clipPath>
</defs>
</svg>
