<svg width="24" height="24" viewBox="0 0 24 24" fill="none" xmlns="http://www.w3.org/2000/svg">
<g clip-path="url(#clip0_39_86)">
<path d="M11.5725 0C11.3962 0 11.2627 0.0013 11.2141 0.0067C11.1625 0.012 10.9982 0.0277 10.8505 0.0395C7.44174 0.3468 4.24884 2.1858 2.22654 5.0123C1.10044 6.584 0.380244 8.3666 0.108244 10.255C0.0120441 10.914 0.000244141 11.1087 0.000244141 12.0024C0.000244141 12.8961 0.0122441 13.0908 0.108244 13.75C0.760244 18.256 3.96734 22.0419 8.31694 23.4445C9.09584 23.6956 9.91694 23.8668 10.8506 23.97C11.2142 24.01 12.786 24.01 13.1496 23.97C14.7613 23.7917 16.1268 23.393 17.4733 22.7057C17.6798 22.6001 17.7197 22.572 17.6916 22.5484C17.6728 22.5345 16.7929 21.3546 15.7373 19.9284L13.8183 17.3364L11.4136 13.7781C10.0905 11.8217 9.00194 10.2221 8.99254 10.2221C8.98314 10.2195 8.97384 11.8008 8.96904 13.7311C8.96234 17.1113 8.95974 17.2473 8.91744 17.3271C8.85644 17.4421 8.80944 17.4889 8.71104 17.5405C8.63604 17.5779 8.57024 17.585 8.21604 17.585H7.81004L7.70224 17.517C7.63539 17.4751 7.58108 17.416 7.54504 17.3458L7.49574 17.2402L7.50104 12.5372L7.50774 7.8318L7.58034 7.7403C7.61794 7.691 7.69774 7.6278 7.75394 7.5973C7.85014 7.5503 7.88774 7.5456 8.29354 7.5456C8.77224 7.5456 8.85194 7.5643 8.97624 7.7003C9.01154 7.738 10.3135 9.699 11.8712 12.0611C13.4484 14.4519 15.0266 16.8421 16.6056 19.2317L18.5058 22.1099L18.6018 22.0466C19.4536 21.493 20.3543 20.7048 21.0675 19.8839C22.5854 18.141 23.5638 16.0159 23.8922 13.7499C23.9883 13.0908 24 12.8959 24 12.0024C24 11.1087 23.988 10.914 23.8922 10.2548C23.24 5.7488 20.033 1.9629 15.6835 0.5603C14.9163 0.3116 14.0999 0.1403 13.185 0.0371C13.016 0.0195 12.1015 0.0005 11.5727 0.0001L11.5725 0ZM15.641 7.217C15.9883 7.217 16.0492 7.2223 16.1267 7.264C16.2394 7.3202 16.3307 7.4282 16.3637 7.5407C16.3823 7.6017 16.3871 8.906 16.3823 11.8451L16.3756 16.0626L15.632 14.9226L14.8859 13.7826V10.7166C14.8859 8.7346 14.8952 7.6203 14.9093 7.5664C14.9468 7.4351 15.0289 7.3318 15.1416 7.2709C15.2377 7.2215 15.2729 7.2169 15.6413 7.2169L15.641 7.217Z" fill="black"/>
</g>
<defs>
<clipPath id="clip0_39_86">
<rect width="24" height="24" fill="white"/>
</clipPath>
</defs>
</svg>
